# 3ds Max Wavefront OBJ Exporter v0.97b - (c)2007 guruware
# File Created: 18.04.2014 01:46:10

#
# object bomb_1
#

v  0.0056 1.0729 -1.7880
v  0.0107 1.0742 -1.7877
v  0.0404 1.0107 -1.7301
v  0.0056 1.0015 -1.7319
v  0.0773 0.9254 -1.6251
v  0.0056 0.9065 -1.6287
v  0.0971 0.8666 -1.5017
v  0.0056 0.8425 -1.5063
v  0.0971 0.7376 -0.8282
v  0.0056 0.7134 -0.8327
v  0.0056 0.8079 -0.3496
v  0.0145 1.0779 -1.7870
v  0.0659 1.0358 -1.7253
v  0.1297 0.9771 -1.6153
v  0.1641 0.9327 -1.4892
v  0.1641 0.8037 -0.8156
v  0.0159 1.0830 -1.7861
v  0.0752 1.0701 -1.7188
v  0.1489 1.0477 -1.6019
v  0.1886 1.0229 -1.4720
v  0.1886 0.8939 -0.7985
v  0.0145 1.0881 -1.7851
v  0.0659 1.1044 -1.7123
v  0.1297 1.1184 -1.5885
v  0.1641 1.1131 -1.4549
v  0.1641 0.9841 -0.7814
v  0.0107 1.0918 -1.7844
v  0.0404 1.1295 -1.7076
v  0.0773 1.1701 -1.5787
v  0.0971 1.1791 -1.4424
v  0.0971 1.0501 -0.7689
v  0.0056 1.0931 -1.7842
v  0.0056 1.1387 -1.7058
v  0.0056 1.1890 -1.5751
v  0.0056 1.2033 -1.4378
v  0.0056 1.0743 -0.7643
v  0.0004 1.0918 -1.7844
v  -0.0292 1.1295 -1.7076
v  -0.0661 1.1701 -1.5787
v  -0.0860 1.1791 -1.4424
v  -0.0860 1.0501 -0.7689
v  -0.0033 1.0881 -1.7851
v  -0.0547 1.1044 -1.7123
v  -0.1186 1.1184 -1.5885
v  -0.1530 1.1131 -1.4549
v  -0.1530 0.9841 -0.7814
v  -0.0047 1.0830 -1.7861
v  -0.0640 1.0701 -1.7188
v  -0.1378 1.0477 -1.6019
v  -0.1775 1.0229 -1.4720
v  -0.1775 0.8939 -0.7985
v  -0.0033 1.0779 -1.7870
v  -0.0547 1.0358 -1.7253
v  -0.1186 0.9771 -1.6153
v  -0.1530 0.9327 -1.4892
v  -0.1530 0.8037 -0.8156
v  0.0004 1.0742 -1.7877
v  -0.0292 1.0107 -1.7301
v  -0.0661 0.9254 -1.6251
v  -0.0860 0.8666 -1.5017
v  -0.0860 0.7376 -0.8282
v  0.0004 0.9333 -0.9771
v  -0.1938 0.6904 -0.7441
v  0.1946 1.0731 -0.6715
v  0.2049 1.0629 -0.6734
v  -0.1834 0.6802 -0.7460
v  0.0108 0.9231 -0.9790
v  0.1946 0.9699 -0.1328
v  -0.1938 0.5872 -0.2054
v  -0.1834 0.5770 -0.2073
v  0.2049 0.9597 -0.1347
v  0.0004 0.9231 -0.9790
v  0.1946 0.6802 -0.7460
v  -0.1938 1.0629 -0.6734
v  -0.1834 1.0731 -0.6715
v  0.2049 0.6904 -0.7441
v  0.0108 0.9333 -0.9771
v  -0.1938 0.9597 -0.1347
v  0.1946 0.5770 -0.2073
v  0.2049 0.5872 -0.2054
v  -0.1834 0.9699 -0.1328
v  0.1886 0.9711 -0.2256
v  -0.1775 0.9711 -0.2256
v  -0.1775 0.9685 -0.2121
v  0.1886 0.9685 -0.2121
v  -0.1775 0.6103 -0.2941
v  -0.1775 0.6077 -0.2806
v  0.1886 0.6103 -0.2941
v  0.1886 0.6077 -0.2806
v  0.1749 0.6238 -0.2915
v  0.1749 0.9575 -0.2282
v  -0.1638 0.6238 -0.2915
v  -0.1638 0.9575 -0.2282
v  -0.1638 0.9550 -0.2147
v  0.1749 0.9550 -0.2147
v  -0.1638 0.6212 -0.2780
v  0.1749 0.6212 -0.2780
# 97 vertices

vn -0.0000 -0.6183 -0.7859
vn 0.3783 -0.5188 -0.7666
vn 0.4053 -0.5780 -0.7083
vn 0.0000 -0.6846 -0.7289
vn 0.4582 -0.7022 -0.5450
vn -0.0000 -0.8228 -0.5683
vn 0.4793 -0.7600 -0.4389
vn -0.0000 -0.8862 -0.4633
vn 0.0000 -0.9821 -0.1881
vn 0.5011 -0.8499 -0.1628
vn 0.5009 -0.8501 -0.1628
vn -0.0000 -0.9814 0.1918
vn 0.4651 -0.8587 0.2150
vn 0.0000 -0.1879 0.9822
vn 0.6545 -0.2477 -0.7143
vn 0.7015 -0.2873 -0.6522
vn 0.7929 -0.3733 -0.4817
vn 0.8296 -0.4159 -0.3726
vn 0.8667 -0.4899 -0.0938
vn 0.8665 -0.4903 -0.0939
vn 0.8047 -0.5244 0.2785
vn 0.7556 0.1223 -0.6435
vn 0.8100 0.1094 -0.5762
vn 0.9153 0.0751 -0.3957
vn 0.9577 0.0534 -0.2826
vn 1.0000 0.0003 0.0001
vn 1.0000 -0.0003 -0.0001
vn 0.9283 -0.0691 0.3653
vn 0.6549 0.4926 -0.5731
vn 0.7020 0.5065 -0.5006
vn 0.7933 0.5239 -0.3101
vn 0.8302 0.5231 -0.1929
vn 0.8665 0.4903 0.0939
vn 0.8667 0.4899 0.0938
vn 0.8040 0.3857 0.4526
vn 0.3786 0.7644 -0.5218
vn 0.4058 0.7980 -0.4455
vn 0.4586 0.8534 -0.2476
vn 0.4799 0.8680 -0.1273
vn 0.5009 0.8501 0.1628
vn 0.5011 0.8499 0.1628
vn 0.4645 0.7191 0.5169
vn 0.0000 0.8642 -0.5031
vn 0.0000 0.9050 -0.4254
vn -0.0000 0.9744 -0.2247
vn 0.0000 0.9947 -0.1033
vn 0.2595 0.9485 0.1817
vn 0.2596 0.9485 0.1817
vn -0.0000 0.8413 0.5405
vn -0.3786 0.7644 -0.5218
vn -0.4058 0.7980 -0.4455
vn -0.4586 0.8535 -0.2476
vn -0.4799 0.8680 -0.1273
vn -0.2595 0.9485 0.1817
vn -0.5009 0.8501 0.1628
vn -0.5011 0.8499 0.1628
vn -0.2596 0.9485 0.1817
vn -0.4645 0.7191 0.5169
vn -0.6550 0.4925 -0.5731
vn -0.7020 0.5065 -0.5006
vn -0.7933 0.5239 -0.3101
vn -0.8302 0.5231 -0.1929
vn -0.8665 0.4903 0.0939
vn -0.8667 0.4899 0.0938
vn -0.8040 0.3857 0.4526
vn -0.7557 0.1223 -0.6435
vn -0.8100 0.1094 -0.5762
vn -0.9153 0.0751 -0.3957
vn -0.9577 0.0534 -0.2826
vn -1.0000 0.0003 0.0001
vn -1.0000 -0.0003 -0.0001
vn -0.9283 -0.0691 0.3653
vn -0.6546 -0.2476 -0.7143
vn -0.7015 -0.2873 -0.6522
vn -0.7929 -0.3733 -0.4817
vn -0.8296 -0.4159 -0.3726
vn -0.8667 -0.4899 -0.0938
vn -0.8665 -0.4903 -0.0939
vn -0.8047 -0.5244 0.2785
vn -0.3782 -0.5189 -0.7666
vn -0.4053 -0.5781 -0.7083
vn -0.4582 -0.7022 -0.5450
vn -0.4793 -0.7600 -0.4389
vn -0.5011 -0.8499 -0.1628
vn -0.5009 -0.8501 -0.1628
vn -0.4651 -0.8587 0.2150
vn 0.0000 0.1866 -0.9824
vn 0.0004 0.1868 -0.9824
vn 0.0001 0.1864 -0.9825
vn 0.0007 0.1859 -0.9826
vn 0.0001 0.1862 -0.9825
vn 0.0000 0.1855 -0.9826
vn -0.0001 0.1863 -0.9825
vn -0.0001 0.1865 -0.9825
vn -0.0002 0.1864 -0.9825
vn 0.0001 0.1863 -0.9825
vn 0.0000 0.1868 -0.9824
vn -0.7082 0.6934 0.1328
vn 0.7082 -0.6934 -0.1328
vn 0.0000 -0.1864 0.9825
vn -0.0000 -0.1864 0.9825
vn -0.7082 -0.6934 -0.1328
vn -0.4998 -0.3573 -0.7890
vn -0.0006 0.1859 -0.9826
vn -0.4997 -0.3574 -0.7890
vn 0.7082 0.6934 0.1328
vn 0.5003 0.6220 -0.6023
vn 0.4997 -0.3575 -0.7890
vn -0.0015 0.1877 -0.9822
vn 0.4998 -0.3573 -0.7890
vn -0.5003 0.6220 -0.6023
vn -0.5004 0.6219 -0.6023
vn -0.0000 0.9623 -0.2721
vn -0.5773 0.6753 -0.4591
vn -0.5774 0.4590 0.6752
vn -0.0000 0.7941 0.6078
vn -0.5774 -0.4590 -0.6752
vn -0.5773 -0.6753 0.4590
vn 0.5774 -0.4590 -0.6752
vn 0.5773 -0.6753 0.4590
vn 0.8946 0.0833 -0.4391
vn 0.8950 -0.0832 0.4383
vn -0.5549 0.1551 -0.8174
vn -0.5541 0.1552 -0.8179
vn 0.0000 0.7007 -0.7135
vn 0.5540 0.1552 -0.8179
vn 0.5549 0.1551 -0.8174
vn -0.0000 -0.3897 -0.9209
vn 0.0000 -0.3896 -0.9210
vn 0.0000 -0.1865 0.9825
vn -0.0000 -0.1863 0.9825
vn 0.0001 -0.1864 0.9825
vn -1.0000 0.0000 -0.0000
vn 0.0000 0.9822 0.1881
vn 1.0000 0.0000 -0.0000
vn 0.0000 -0.9821 -0.1882
# 136 vertex normals

vt 0.2976 0.1573 0.0000
vt 0.3016 0.1563 0.0000
vt 0.3247 0.1963 0.0000
vt 0.2976 0.2036 0.0000
vt 0.3534 0.2460 0.0000
vt 0.2976 0.2610 0.0000
vt 0.3689 0.2728 0.0000
vt 0.2976 0.2919 0.0000
vt 0.2779 0.6453 0.0000
vt 0.2779 0.5890 0.0000
vt 0.6860 0.5890 0.0000
vt 0.6860 0.6453 0.0000
vt 0.5924 0.2919 0.0000
vt 0.5211 0.2728 0.0000
vt 0.5924 0.1493 0.0000
vt 0.3045 0.1533 0.0000
vt 0.3445 0.1764 0.0000
vt 0.3943 0.2051 0.0000
vt 0.4210 0.2206 0.0000
vt 0.2779 0.5326 0.0000
vt 0.6860 0.5326 0.0000
vt 0.4689 0.2206 0.0000
vt 0.3056 0.1493 0.0000
vt 0.3518 0.1493 0.0000
vt 0.4092 0.1493 0.0000
vt 0.4401 0.1493 0.0000
vt 0.2779 0.4763 0.0000
vt 0.6860 0.4763 0.0000
vt 0.4498 0.1493 0.0000
vt 0.3045 0.1453 0.0000
vt 0.3445 0.1222 0.0000
vt 0.3943 0.0935 0.0000
vt 0.4210 0.0780 0.0000
vt 0.2779 0.4200 0.0000
vt 0.6860 0.4200 0.0000
vt 0.4689 0.0780 0.0000
vt 0.3016 0.1424 0.0000
vt 0.3247 0.1024 0.0000
vt 0.3534 0.0526 0.0000
vt 0.3689 0.0259 0.0000
vt 0.2779 0.3637 0.0000
vt 0.6860 0.3637 0.0000
vt 0.5211 0.0258 0.0000
vt 0.2976 0.1413 0.0000
vt 0.2976 0.0951 0.0000
vt 0.2976 0.0377 0.0000
vt 0.2976 0.0068 0.0000
vt 0.2779 0.3074 0.0000
vt 0.6860 0.3074 0.0000
vt 0.5924 0.0067 0.0000
vt 0.2936 0.1424 0.0000
vt 0.2705 0.1024 0.0000
vt 0.2418 0.0526 0.0000
vt 0.2263 0.0259 0.0000
vt 0.2779 0.9832 0.0000
vt 0.2779 0.9269 0.0000
vt 0.6860 0.9269 0.0000
vt 0.6860 0.9832 0.0000
vt 0.6637 0.0258 0.0000
vt 0.2906 0.1453 0.0000
vt 0.2506 0.1222 0.0000
vt 0.2009 0.0935 0.0000
vt 0.1741 0.0780 0.0000
vt 0.2779 0.8705 0.0000
vt 0.6860 0.8705 0.0000
vt 0.7159 0.0780 0.0000
vt 0.2896 0.1493 0.0000
vt 0.2434 0.1493 0.0000
vt 0.1859 0.1493 0.0000
vt 0.1550 0.1493 0.0000
vt 0.2779 0.8142 0.0000
vt 0.6860 0.8142 0.0000
vt 0.7350 0.1493 0.0000
vt 0.2906 0.1533 0.0000
vt 0.2506 0.1764 0.0000
vt 0.2009 0.2051 0.0000
vt 0.1741 0.2206 0.0000
vt 0.2779 0.7579 0.0000
vt 0.6860 0.7579 0.0000
vt 0.7159 0.2206 0.0000
vt 0.2936 0.1563 0.0000
vt 0.2705 0.1963 0.0000
vt 0.2418 0.2460 0.0000
vt 0.2263 0.2728 0.0000
vt 0.2779 0.7016 0.0000
vt 0.6860 0.7016 0.0000
vt 0.6637 0.2728 0.0000
vt 0.8487 0.1422 0.0000
vt 0.7149 0.2759 0.0000
vt 0.9825 0.2759 0.0000
vt 0.9825 0.5507 0.0000
vt 0.7149 0.5507 0.0000
vt 0.7149 0.5435 0.0000
vt 0.9825 0.5435 0.0000
vt 0.7078 0.2759 0.0000
vt 0.7078 0.5435 0.0000
vt 0.8436 0.1371 0.0000
vt 0.7099 0.2709 0.0000
vt 0.9896 0.5435 0.0000
vt 0.9896 0.2759 0.0000
vt 0.9875 0.2709 0.0000
vt 0.8537 0.1371 0.0000
vt 0.8429 0.5754 0.0000
vt 0.7092 0.7092 0.0000
vt 0.9767 0.7092 0.0000
vt 0.9767 0.9839 0.0000
vt 0.7092 0.9839 0.0000
vt 0.7092 0.9767 0.0000
vt 0.9767 0.9767 0.0000
vt 0.7020 0.7092 0.0000
vt 0.7020 0.9767 0.0000
vt 0.8379 0.5703 0.0000
vt 0.7041 0.7041 0.0000
vt 0.9839 0.9767 0.0000
vt 0.9839 0.7092 0.0000
vt 0.9818 0.7041 0.0000
vt 0.8480 0.5703 0.0000
vt 0.2167 0.9678 0.0000
vt 0.2167 0.8214 0.0000
vt 0.2222 0.8214 0.0000
vt 0.2222 0.9678 0.0000
vt 0.2167 0.6751 0.0000
vt 0.2222 0.6751 0.0000
vt 0.2167 0.5287 0.0000
vt 0.2222 0.5287 0.0000
vt 0.2167 0.3823 0.0000
vt 0.2222 0.3823 0.0000
vt 0.2112 0.5232 0.0000
vt 0.2112 0.3878 0.0000
vt 0.2112 0.6696 0.0000
vt 0.2112 0.5342 0.0000
vt 0.2112 0.8159 0.0000
vt 0.2112 0.6805 0.0000
vt 0.2112 0.9623 0.0000
vt 0.2112 0.8269 0.0000
vt 0.2276 0.8269 0.0000
vt 0.2276 0.9623 0.0000
vt 0.2276 0.6805 0.0000
vt 0.2276 0.8159 0.0000
vt 0.2276 0.5342 0.0000
vt 0.2276 0.6696 0.0000
vt 0.2276 0.3878 0.0000
vt 0.2276 0.5232 0.0000
vt 0.2057 0.5232 0.0000
vt 0.2057 0.3878 0.0000
vt 0.2057 0.6696 0.0000
vt 0.2057 0.5342 0.0000
vt 0.2057 0.8159 0.0000
vt 0.2057 0.6805 0.0000
vt 0.2057 0.9623 0.0000
vt 0.2057 0.8269 0.0000
# 151 texture coords

g bomb_1
s 1
f 1/1/1 2/2/2 3/3/3 
f 3/3/3 4/4/4 1/1/1 
f 4/4/4 3/3/3 5/5/5 
f 5/5/5 6/6/6 4/4/4 
f 6/6/6 5/5/5 7/7/7 
f 7/7/7 8/8/8 6/6/6 
f 8/9/9 7/10/10 9/11/11 
f 9/11/11 10/12/9 8/9/9 
f 10/13/12 9/14/13 11/15/14 
f 2/2/2 12/16/15 13/17/16 
f 13/17/16 3/3/3 2/2/2 
f 3/3/3 13/17/16 14/18/17 
f 14/18/17 5/5/5 3/3/3 
f 5/5/5 14/18/17 15/19/18 
f 15/19/18 7/7/7 5/5/5 
f 7/10/10 15/20/19 16/21/20 
f 16/21/20 9/11/11 7/10/10 
f 9/14/13 16/22/21 11/15/14 
f 12/16/15 17/23/22 18/24/23 
f 18/24/23 13/17/16 12/16/15 
f 13/17/16 18/24/23 19/25/24 
f 19/25/24 14/18/17 13/17/16 
f 14/18/17 19/25/24 20/26/25 
f 20/26/25 15/19/18 14/18/17 
f 15/20/19 20/27/26 21/28/27 
f 21/28/27 16/21/20 15/20/19 
f 16/22/21 21/29/28 11/15/14 
f 17/23/22 22/30/29 23/31/30 
f 23/31/30 18/24/23 17/23/22 
f 18/24/23 23/31/30 24/32/31 
f 24/32/31 19/25/24 18/24/23 
f 19/25/24 24/32/31 25/33/32 
f 25/33/32 20/26/25 19/25/24 
f 20/27/26 25/34/33 26/35/34 
f 26/35/34 21/28/27 20/27/26 
f 21/29/28 26/36/35 11/15/14 
f 22/30/29 27/37/36 28/38/37 
f 28/38/37 23/31/30 22/30/29 
f 23/31/30 28/38/37 29/39/38 
f 29/39/38 24/32/31 23/31/30 
f 24/32/31 29/39/38 30/40/39 
f 30/40/39 25/33/32 24/32/31 
f 25/34/33 30/41/40 31/42/41 
f 31/42/41 26/35/34 25/34/33 
f 26/36/35 31/43/42 11/15/14 
f 27/37/36 32/44/43 33/45/44 
f 33/45/44 28/38/37 27/37/36 
f 28/38/37 33/45/44 34/46/45 
f 34/46/45 29/39/38 28/38/37 
f 29/39/38 34/46/45 35/47/46 
f 35/47/46 30/40/39 29/39/38 
f 30/41/40 35/48/47 36/49/48 
f 36/49/48 31/42/41 30/41/40 
f 31/43/42 36/50/49 11/15/14 
f 32/44/43 37/51/50 38/52/51 
f 38/52/51 33/45/44 32/44/43 
f 33/45/44 38/52/51 39/53/52 
f 39/53/52 34/46/45 33/45/44 
f 34/46/45 39/53/52 40/54/53 
f 40/54/53 35/47/46 34/46/45 
f 35/55/54 40/56/55 41/57/56 
f 41/57/56 36/58/57 35/55/54 
f 36/50/49 41/59/58 11/15/14 
f 37/51/50 42/60/59 43/61/60 
f 43/61/60 38/52/51 37/51/50 
f 38/52/51 43/61/60 44/62/61 
f 44/62/61 39/53/52 38/52/51 
f 39/53/52 44/62/61 45/63/62 
f 45/63/62 40/54/53 39/53/52 
f 40/56/55 45/64/63 46/65/64 
f 46/65/64 41/57/56 40/56/55 
f 41/59/58 46/66/65 11/15/14 
f 42/60/59 47/67/66 48/68/67 
f 48/68/67 43/61/60 42/60/59 
f 43/61/60 48/68/67 49/69/68 
f 49/69/68 44/62/61 43/61/60 
f 44/62/61 49/69/68 50/70/69 
f 50/70/69 45/63/62 44/62/61 
f 45/64/63 50/71/70 51/72/71 
f 51/72/71 46/65/64 45/64/63 
f 46/66/65 51/73/72 11/15/14 
f 47/67/66 52/74/73 53/75/74 
f 53/75/74 48/68/67 47/67/66 
f 48/68/67 53/75/74 54/76/75 
f 54/76/75 49/69/68 48/68/67 
f 49/69/68 54/76/75 55/77/76 
f 55/77/76 50/70/69 49/69/68 
f 50/71/70 55/78/77 56/79/78 
f 56/79/78 51/72/71 50/71/70 
f 51/73/72 56/80/79 11/15/14 
f 52/74/73 57/81/80 58/82/81 
f 58/82/81 53/75/74 52/74/73 
f 53/75/74 58/82/81 59/83/82 
f 59/83/82 54/76/75 53/75/74 
f 54/76/75 59/83/82 60/84/83 
f 60/84/83 55/77/76 54/76/75 
f 55/78/77 60/85/84 61/86/85 
f 61/86/85 56/79/78 55/78/77 
f 56/80/79 61/87/86 11/15/14 
f 57/81/80 1/1/1 4/4/4 
f 4/4/4 58/82/81 57/81/80 
f 58/82/81 4/4/4 6/6/6 
f 6/6/6 59/83/82 58/82/81 
f 59/83/82 6/6/6 8/8/8 
f 8/8/8 60/84/83 59/83/82 
f 60/85/84 8/9/9 10/12/9 
f 10/12/9 61/86/85 60/85/84 
f 61/87/86 10/13/12 11/15/14 
f 57/81/87 52/74/88 47/67/89 
f 47/67/89 42/60/90 37/51/91 
f 37/51/91 32/44/92 27/37/93 
f 47/67/89 37/51/91 27/37/93 
f 27/37/93 22/30/94 17/23/95 
f 17/23/95 12/16/96 2/2/94 
f 27/37/93 17/23/95 2/2/94 
f 47/67/89 27/37/93 2/2/94 
f 57/81/87 47/67/89 2/2/94 
f 1/1/97 57/81/87 2/2/94 
f 62/88/98 63/89/98 64/90/98 
f 65/90/99 66/89/99 67/88/99 
f 68/91/100 69/92/101 70/93/101 
f 70/93/101 71/94/100 68/91/100 
f 63/95/102 66/89/102 70/93/102 
f 70/93/102 69/96/102 63/95/102 
f 62/97/103 67/88/104 66/89/105 
f 66/89/105 63/98/105 62/97/103 
f 69/93/98 68/94/98 64/90/98 
f 64/90/98 63/89/98 69/93/98 
f 71/94/99 70/93/99 66/89/99 
f 66/89/99 65/90/99 71/94/99 
f 68/99/106 71/94/106 65/90/106 
f 65/90/106 64/100/106 68/99/106 
f 64/101/107 65/90/107 67/88/104 
f 67/88/104 62/102/107 64/101/107 
f 72/103/102 73/104/102 74/105/102 
f 75/105/106 76/104/106 77/103/106 
f 78/106/100 79/107/100 80/108/100 
f 80/108/100 81/109/100 78/106/100 
f 73/110/99 76/104/99 80/108/99 
f 80/108/99 79/111/99 73/110/99 
f 72/112/108 77/103/109 76/104/110 
f 76/104/110 73/113/110 72/112/108 
f 79/108/102 78/109/102 74/105/102 
f 74/105/102 73/104/102 79/108/102 
f 81/109/106 80/108/106 76/104/106 
f 76/104/106 75/105/106 81/109/106 
f 78/114/98 81/109/98 75/105/98 
f 75/105/98 74/115/98 78/114/98 
f 74/116/111 75/105/111 77/103/109 
f 77/103/109 72/117/112 74/116/111 
f 82/118/113 83/119/114 84/120/115 
f 84/120/115 85/121/116 82/118/113 
f 83/119/114 86/122/117 87/123/118 
f 87/123/118 84/120/115 83/119/114 
f 86/122/117 88/124/119 89/125/120 
f 89/125/120 87/123/118 86/122/117 
f 88/124/119 82/126/121 85/127/122 
f 85/127/122 89/125/120 88/124/119 
f 82/126/121 88/124/119 90/128/123 
f 90/128/123 91/129/124 82/126/121 
f 88/124/119 86/122/117 92/130/125 
f 92/130/125 90/131/125 88/124/119 
f 86/122/117 83/119/114 93/132/126 
f 93/132/126 92/133/127 86/122/117 
f 83/119/114 82/118/113 91/134/128 
f 91/134/128 93/135/129 83/119/114 
f 85/121/116 84/120/115 94/136/130 
f 94/136/130 95/137/131 85/121/116 
f 84/120/115 87/123/118 96/138/100 
f 96/138/100 94/139/100 84/120/115 
f 87/123/118 89/125/120 97/140/100 
f 97/140/100 96/141/100 87/123/118 
f 89/125/120 85/127/122 95/142/132 
f 95/142/132 97/143/101 89/125/120 
f 91/129/124 90/128/123 97/144/133 
f 97/144/133 95/145/133 91/129/124 
f 90/131/125 92/130/125 96/146/134 
f 96/146/134 97/147/134 90/131/125 
f 92/133/127 93/132/126 94/148/135 
f 94/148/135 96/149/135 92/133/127 
f 93/135/129 91/134/128 95/150/136 
f 95/150/136 94/151/136 93/135/129 
# 182 faces

