# 3ds Max Wavefront OBJ Exporter v0.97b - (c)2007 guruware
# File Created: 18.04.2014 01:47:52

#
# object bombs_2
#

v  0.1134 1.5728 -1.5510
v  0.1162 1.5735 -1.5508
v  0.1320 1.5381 -1.5219
v  0.1134 1.5332 -1.5231
v  0.1516 1.4897 -1.4685
v  0.1134 1.4798 -1.4709
v  0.1622 1.4550 -1.4044
v  0.1134 1.4423 -1.4075
v  0.1622 1.3328 -0.9090
v  0.1134 1.3201 -0.9122
v  0.1134 1.3380 -0.5763
v  0.1182 1.5754 -1.5503
v  0.1455 1.5513 -1.5187
v  0.1795 1.5170 -1.4618
v  0.1979 1.4898 -1.3959
v  0.1979 1.3676 -0.9005
v  0.1189 1.5781 -1.5497
v  0.1505 1.5694 -1.5143
v  0.1898 1.5542 -1.4527
v  0.2109 1.5373 -1.3843
v  0.2109 1.4151 -0.8889
v  0.1182 1.5808 -1.5490
v  0.1455 1.5874 -1.5099
v  0.1795 1.5914 -1.4436
v  0.1979 1.5848 -1.3727
v  0.1979 1.4626 -0.8773
v  0.1162 1.5827 -1.5486
v  0.1320 1.6006 -1.5066
v  0.1516 1.6186 -1.4370
v  0.1622 1.6196 -1.3642
v  0.1622 1.4974 -0.8688
v  0.1134 1.5834 -1.5484
v  0.1134 1.6055 -1.5055
v  0.1134 1.6286 -1.4345
v  0.1134 1.6323 -1.3611
v  0.1134 1.5101 -0.8657
v  0.1107 1.5827 -1.5486
v  0.0949 1.6006 -1.5066
v  0.0752 1.6186 -1.4370
v  0.0647 1.6196 -1.3642
v  0.0647 1.4974 -0.8688
v  0.1087 1.5808 -1.5490
v  0.0813 1.5874 -1.5099
v  0.0473 1.5914 -1.4436
v  0.0290 1.5848 -1.3727
v  0.0290 1.4626 -0.8773
v  0.1079 1.5781 -1.5497
v  0.0763 1.5694 -1.5143
v  0.0371 1.5542 -1.4527
v  0.0159 1.5373 -1.3843
v  0.0159 1.4151 -0.8889
v  0.1087 1.5754 -1.5503
v  0.0813 1.5513 -1.5187
v  0.0473 1.5170 -1.4618
v  0.0290 1.4898 -1.3959
v  0.0290 1.3676 -0.9005
v  0.1107 1.5735 -1.5508
v  0.0949 1.5381 -1.5219
v  0.0752 1.4897 -1.4685
v  0.0647 1.4550 -1.4044
v  0.0647 1.3328 -0.9090
v  0.1107 1.4411 -0.9828
v  0.0072 1.3054 -0.8656
v  0.2141 1.5069 -0.8164
v  0.2196 1.5015 -0.8177
v  0.0128 1.3000 -0.8669
v  0.1162 1.4357 -0.9841
v  0.2141 1.4181 -0.4565
v  0.0072 1.2166 -0.5058
v  0.0128 1.2112 -0.5071
v  0.2196 1.4127 -0.4578
v  0.1107 1.4357 -0.9841
v  0.2141 1.3000 -0.8669
v  0.0072 1.5015 -0.8177
v  0.0128 1.5069 -0.8164
v  0.2196 1.3054 -0.8656
v  0.1162 1.4411 -0.9828
v  0.0072 1.4127 -0.4578
v  0.2141 1.2112 -0.5071
v  0.2196 1.2166 -0.5058
v  0.0128 1.4181 -0.4565
v  -0.1166 1.5728 -1.5512
v  -0.1138 1.5735 -1.5510
v  -0.0980 1.5381 -1.5221
v  -0.1166 1.5332 -1.5233
v  -0.0784 1.4897 -1.4686
v  -0.1166 1.4798 -1.4711
v  -0.0678 1.4550 -1.4046
v  -0.1166 1.4423 -1.4077
v  -0.0678 1.3328 -0.9092
v  -0.1166 1.3201 -0.9123
v  -0.1166 1.3380 -0.5765
v  -0.1118 1.5754 -1.5505
v  -0.0845 1.5513 -1.5189
v  -0.0504 1.5170 -1.4620
v  -0.0321 1.4898 -1.3961
v  -0.0321 1.3676 -0.9007
v  -0.1111 1.5781 -1.5499
v  -0.0795 1.5694 -1.5145
v  -0.0402 1.5542 -1.4529
v  -0.0191 1.5373 -1.3845
v  -0.0191 1.4151 -0.8891
v  -0.1118 1.5808 -1.5492
v  -0.0845 1.5874 -1.5100
v  -0.0504 1.5914 -1.4438
v  -0.0321 1.5848 -1.3729
v  -0.0321 1.4626 -0.8775
v  -0.1138 1.5827 -1.5487
v  -0.0980 1.6006 -1.5068
v  -0.0784 1.6186 -1.4372
v  -0.0678 1.6196 -1.3644
v  -0.0678 1.4974 -0.8690
v  -0.1166 1.5834 -1.5486
v  -0.1166 1.6055 -1.5056
v  -0.1166 1.6286 -1.4347
v  -0.1166 1.6323 -1.3613
v  -0.1166 1.5101 -0.8659
v  -0.1193 1.5827 -1.5487
v  -0.1351 1.6006 -1.5068
v  -0.1547 1.6186 -1.4372
v  -0.1653 1.6196 -1.3644
v  -0.1653 1.4974 -0.8690
v  -0.1213 1.5808 -1.5492
v  -0.1487 1.5874 -1.5100
v  -0.1827 1.5914 -1.4438
v  -0.2010 1.5848 -1.3729
v  -0.2010 1.4626 -0.8775
v  -0.1220 1.5781 -1.5499
v  -0.1537 1.5694 -1.5145
v  -0.1929 1.5542 -1.4529
v  -0.2141 1.5373 -1.3845
v  -0.2141 1.4151 -0.8891
v  -0.1213 1.5754 -1.5505
v  -0.1487 1.5513 -1.5189
v  -0.1827 1.5170 -1.4620
v  -0.2010 1.4898 -1.3961
v  -0.2010 1.3676 -0.9007
v  -0.1193 1.5735 -1.5510
v  -0.1351 1.5381 -1.5221
v  -0.1547 1.4897 -1.4686
v  -0.1653 1.4550 -1.4046
v  -0.1653 1.3328 -0.9092
v  -0.1193 1.4411 -0.9830
v  -0.2227 1.3054 -0.8658
v  -0.0159 1.5069 -0.8166
v  -0.0104 1.5015 -0.8179
v  -0.2172 1.3000 -0.8671
v  -0.1138 1.4357 -0.9843
v  -0.0159 1.4181 -0.4567
v  -0.2227 1.2166 -0.5059
v  -0.2172 1.2112 -0.5072
v  -0.0104 1.4127 -0.4580
v  -0.1193 1.4357 -0.9843
v  -0.0159 1.3000 -0.8671
v  -0.2227 1.5015 -0.8179
v  -0.2172 1.5069 -0.8166
v  -0.0104 1.3054 -0.8658
v  -0.1138 1.4411 -0.9830
v  -0.2227 1.4127 -0.4580
v  -0.0159 1.2112 -0.5072
v  -0.0104 1.2166 -0.5059
v  -0.2172 1.4181 -0.4567
# 162 vertices

vn -0.0003 -0.5765 -0.8171
vn 0.3782 -0.4781 -0.7927
vn 0.4052 -0.5403 -0.7375
vn 0.0000 -0.6456 -0.7637
vn 0.4581 -0.6727 -0.5811
vn -0.0000 -0.7919 -0.6107
vn 0.4792 -0.7360 -0.4782
vn -0.0000 -0.8607 -0.5091
vn -0.0000 -0.9709 -0.2395
vn 0.5011 -0.8402 -0.2072
vn 0.5008 -0.8404 -0.2073
vn 0.0000 -0.9709 -0.2395
vn -0.0000 -0.9986 0.0532
vn 0.4797 -0.8734 0.0838
vn -0.0000 -0.2393 0.9709
vn 0.6546 -0.2099 -0.7262
vn 0.7015 -0.2529 -0.6663
vn 0.7928 -0.3476 -0.5006
vn 0.8295 -0.3959 -0.3940
vn 0.8667 -0.4843 -0.1194
vn 0.8664 -0.4848 -0.1196
vn 0.8297 -0.5326 0.1674
vn 0.7557 0.1557 -0.6362
vn 0.8100 0.1393 -0.5696
vn 0.9153 0.0957 -0.3912
vn 0.9578 0.0680 -0.2794
vn 1.0000 0.0003 0.0001
vn 1.0000 -0.0003 -0.0001
vn 0.9571 -0.0685 0.2816
vn 0.6551 0.5218 -0.5464
vn 0.7021 0.5319 -0.4734
vn 0.7934 0.5394 -0.2822
vn 0.8302 0.5324 -0.1652
vn 0.8664 0.4848 0.1196
vn 0.8667 0.4843 0.1194
vn 0.8289 0.3950 0.3961
vn 0.3788 0.7906 -0.4810
vn 0.4059 0.8203 -0.4030
vn 0.4586 0.8653 -0.2024
vn 0.4800 0.8735 -0.0815
vn 0.5008 0.8404 0.2073
vn 0.5011 0.8402 0.2072
vn 0.4789 0.7349 0.4802
vn -0.0002 0.8895 -0.4570
vn -0.0000 0.9261 -0.3773
vn -0.0000 0.9849 -0.1732
vn -0.0000 0.9987 -0.0508
vn 0.2595 0.9376 0.2313
vn -0.0000 0.8595 0.5111
vn -0.3786 0.7908 -0.4809
vn -0.4058 0.8203 -0.4030
vn -0.4586 0.8653 -0.2024
vn -0.4800 0.8735 -0.0815
vn -0.2595 0.9376 0.2313
vn -0.5008 0.8404 0.2073
vn -0.5011 0.8402 0.2072
vn -0.4789 0.7349 0.4802
vn -0.6550 0.5218 -0.5465
vn -0.7021 0.5320 -0.4734
vn -0.7934 0.5394 -0.2822
vn -0.8302 0.5324 -0.1652
vn -0.8664 0.4848 0.1196
vn -0.8667 0.4843 0.1194
vn -0.8289 0.3951 0.3961
vn -0.7557 0.1556 -0.6362
vn -0.8100 0.1393 -0.5696
vn -0.9153 0.0957 -0.3912
vn -0.9578 0.0680 -0.2794
vn -1.0000 0.0003 0.0001
vn -1.0000 -0.0003 -0.0001
vn -0.9571 -0.0685 0.2816
vn -0.6544 -0.2101 -0.7263
vn -0.7015 -0.2529 -0.6663
vn -0.7928 -0.3476 -0.5006
vn -0.8295 -0.3959 -0.3940
vn -0.8667 -0.4843 -0.1194
vn -0.8664 -0.4848 -0.1196
vn -0.8297 -0.5326 0.1674
vn -0.3781 -0.4782 -0.7927
vn -0.4052 -0.5403 -0.7375
vn -0.4581 -0.6727 -0.5811
vn -0.4792 -0.7360 -0.4782
vn -0.5011 -0.8402 -0.2072
vn -0.5008 -0.8404 -0.2073
vn -0.4797 -0.8734 0.0838
vn -0.0002 0.2372 -0.9715
vn 0.0014 0.2379 -0.9713
vn 0.0001 0.2373 -0.9714
vn 0.0020 0.2364 -0.9717
vn -0.0001 0.2376 -0.9714
vn -0.0004 0.2381 -0.9712
vn 0.0001 0.2375 -0.9714
vn 0.0017 0.2380 -0.9713
vn 0.0007 0.2373 -0.9714
vn 0.0022 0.2363 -0.9717
vn 0.0001 0.2372 -0.9715
vn -0.0003 0.2380 -0.9713
vn -0.7081 0.6855 0.1691
vn 0.7081 -0.6855 -0.1691
vn 0.0001 -0.2374 0.9714
vn -0.0001 -0.2373 0.9714
vn -0.7082 -0.6855 -0.1691
vn -0.7081 -0.6855 -0.1691
vn 0.0017 0.2385 -0.9711
vn -0.4995 -0.3160 -0.8067
vn -0.4997 -0.3157 -0.8066
vn -0.4998 -0.3157 -0.8066
vn 0.7082 0.6855 0.1691
vn 0.5004 0.6527 -0.5689
vn 0.5006 0.6525 -0.5689
vn 0.7081 0.6855 0.1691
vn 0.0000 -0.2374 0.9714
vn 0.0001 -0.2373 0.9714
vn 0.7081 -0.6856 -0.1691
vn 0.0005 0.2371 -0.9715
vn 0.4998 -0.3157 -0.8066
vn 0.4997 -0.3157 -0.8066
vn -0.7082 0.6855 0.1691
vn -0.7082 0.6854 0.1691
vn -0.5004 0.6527 -0.5689
vn -0.5004 0.6527 -0.5688
vn -0.0002 -0.5765 -0.8171
vn 0.3781 -0.4782 -0.7927
vn -0.0000 -0.6456 -0.7637
vn 0.0000 -0.8607 -0.5091
vn 0.0000 -0.9986 0.0532
vn 0.0000 -0.2393 0.9709
vn 0.6547 -0.2098 -0.7262
vn 0.7557 0.1557 -0.6361
vn 0.6551 0.5217 -0.5464
vn 0.8289 0.3951 0.3961
vn 0.3788 0.7907 -0.4810
vn 0.4058 0.8203 -0.4030
vn -0.0001 0.8895 -0.4570
vn 0.0000 0.9987 -0.0508
vn 0.0000 0.8595 0.5111
vn -0.3787 0.7907 -0.4810
vn -0.6551 0.5218 -0.5465
vn -0.7557 0.1557 -0.6362
vn -0.9578 0.0680 -0.2795
vn -0.6545 -0.2101 -0.7263
vn -0.7014 -0.2529 -0.6663
vn -0.3782 -0.4782 -0.7927
vn -0.0004 0.2371 -0.9715
vn -0.0003 0.2374 -0.9714
vn -0.0003 0.2377 -0.9713
vn -0.0004 0.2376 -0.9714
vn -0.0004 0.2368 -0.9716
vn 0.0008 0.2374 -0.9714
vn 0.0017 0.2368 -0.9716
vn -0.0004 0.2367 -0.9716
vn -0.0000 -0.2374 0.9714
vn -0.7081 -0.6856 -0.1691
vn 0.0015 0.2387 -0.9711
vn -0.4996 -0.3158 -0.8066
vn 0.5005 0.6526 -0.5689
vn 0.0003 0.2370 -0.9715
vn 0.4996 -0.3159 -0.8066
vn -0.7081 0.6856 0.1691
# 159 vertex normals

vt 0.1451 0.1562 0.0000
vt 0.1491 0.1551 0.0000
vt 0.1722 0.1951 0.0000
vt 0.1451 0.2024 0.0000
vt 0.2009 0.2449 0.0000
vt 0.1451 0.2598 0.0000
vt 0.2164 0.2716 0.0000
vt 0.1451 0.2907 0.0000
vt 0.0103 0.6513 0.0000
vt 0.0103 0.5945 0.0000
vt 0.5855 0.5945 0.0000
vt 0.5855 0.6513 0.0000
vt 0.4544 0.2907 0.0000
vt 0.3831 0.2716 0.0000
vt 0.4544 0.1482 0.0000
vt 0.1520 0.1522 0.0000
vt 0.1920 0.1753 0.0000
vt 0.2418 0.2040 0.0000
vt 0.2686 0.2195 0.0000
vt 0.0103 0.5376 0.0000
vt 0.5855 0.5376 0.0000
vt 0.3309 0.2194 0.0000
vt 0.1531 0.1482 0.0000
vt 0.1993 0.1482 0.0000
vt 0.2567 0.1482 0.0000
vt 0.2877 0.1482 0.0000
vt 0.0103 0.4808 0.0000
vt 0.5855 0.4808 0.0000
vt 0.3118 0.1482 0.0000
vt 0.1520 0.1442 0.0000
vt 0.1920 0.1211 0.0000
vt 0.2418 0.0924 0.0000
vt 0.2686 0.0769 0.0000
vt 0.0103 0.4240 0.0000
vt 0.5855 0.4240 0.0000
vt 0.3309 0.0769 0.0000
vt 0.1491 0.1412 0.0000
vt 0.1722 0.1012 0.0000
vt 0.2009 0.0515 0.0000
vt 0.2164 0.0247 0.0000
vt 0.0103 0.3672 0.0000
vt 0.5855 0.3672 0.0000
vt 0.3831 0.0247 0.0000
vt 0.1451 0.1402 0.0000
vt 0.1451 0.0940 0.0000
vt 0.1451 0.0365 0.0000
vt 0.1451 0.0056 0.0000
vt 0.0103 0.3104 0.0000
vt 0.5855 0.3104 0.0000
vt 0.4544 0.0056 0.0000
vt 0.1411 0.1412 0.0000
vt 0.1180 0.1012 0.0000
vt 0.0892 0.0515 0.0000
vt 0.0738 0.0247 0.0000
vt 0.0103 0.9922 0.0000
vt 0.0103 0.9354 0.0000
vt 0.5855 0.9354 0.0000
vt 0.5855 0.9922 0.0000
vt 0.5257 0.0247 0.0000
vt 0.1381 0.1442 0.0000
vt 0.0981 0.1211 0.0000
vt 0.0484 0.0924 0.0000
vt 0.0216 0.0769 0.0000
vt 0.0103 0.8786 0.0000
vt 0.5855 0.8786 0.0000
vt 0.5779 0.0769 0.0000
vt 0.1371 0.1482 0.0000
vt 0.0909 0.1482 0.0000
vt 0.0334 0.1482 0.0000
vt 0.0025 0.1482 0.0000
vt 0.0103 0.8217 0.0000
vt 0.5855 0.8217 0.0000
vt 0.5970 0.1482 0.0000
vt 0.1381 0.1522 0.0000
vt 0.0981 0.1753 0.0000
vt 0.0484 0.2040 0.0000
vt 0.0216 0.2195 0.0000
vt 0.0103 0.7649 0.0000
vt 0.5855 0.7649 0.0000
vt 0.5779 0.2194 0.0000
vt 0.1411 0.1551 0.0000
vt 0.1180 0.1951 0.0000
vt 0.0892 0.2449 0.0000
vt 0.0738 0.2716 0.0000
vt 0.0103 0.7081 0.0000
vt 0.5855 0.7081 0.0000
vt 0.5257 0.2716 0.0000
vt 0.7941 0.5088 0.0000
vt 0.9336 0.3692 0.0000
vt 0.6545 0.3692 0.0000
vt 0.6545 0.0077 0.0000
vt 0.9336 0.0077 0.0000
vt 0.9336 0.0151 0.0000
vt 0.6545 0.0151 0.0000
vt 0.9430 0.3692 0.0000
vt 0.9430 0.0151 0.0000
vt 0.7993 0.5140 0.0000
vt 0.9389 0.3745 0.0000
vt 0.6451 0.0151 0.0000
vt 0.6451 0.3692 0.0000
vt 0.6492 0.3745 0.0000
vt 0.7888 0.5140 0.0000
vt 0.8462 0.4928 0.0000
vt 0.7067 0.6324 0.0000
vt 0.9858 0.6324 0.0000
vt 0.9858 0.9939 0.0000
vt 0.7067 0.9939 0.0000
vt 0.7067 0.9865 0.0000
vt 0.9858 0.9865 0.0000
vt 0.6972 0.6324 0.0000
vt 0.6972 0.9865 0.0000
vt 0.8409 0.4876 0.0000
vt 0.7014 0.6271 0.0000
vt 0.9952 0.9865 0.0000
vt 0.9952 0.6324 0.0000
vt 0.9910 0.6271 0.0000
vt 0.8515 0.4876 0.0000
# 117 texture coords

g bombs_2
s 1
f 1/1/1 2/2/2 3/3/3 
f 3/3/3 4/4/4 1/1/1 
f 4/4/4 3/3/3 5/5/5 
f 5/5/5 6/6/6 4/4/4 
f 6/6/6 5/5/5 7/7/7 
f 7/7/7 8/8/8 6/6/6 
f 8/9/9 7/10/10 9/11/11 
f 9/11/11 10/12/12 8/9/9 
f 10/13/13 9/14/14 11/15/15 
f 2/2/2 12/16/16 13/17/17 
f 13/17/17 3/3/3 2/2/2 
f 3/3/3 13/17/17 14/18/18 
f 14/18/18 5/5/5 3/3/3 
f 5/5/5 14/18/18 15/19/19 
f 15/19/19 7/7/7 5/5/5 
f 7/10/10 15/20/20 16/21/21 
f 16/21/21 9/11/11 7/10/10 
f 9/14/14 16/22/22 11/15/15 
f 12/16/16 17/23/23 18/24/24 
f 18/24/24 13/17/17 12/16/16 
f 13/17/17 18/24/24 19/25/25 
f 19/25/25 14/18/18 13/17/17 
f 14/18/18 19/25/25 20/26/26 
f 20/26/26 15/19/19 14/18/18 
f 15/20/20 20/27/27 21/28/28 
f 21/28/28 16/21/21 15/20/20 
f 16/22/22 21/29/29 11/15/15 
f 17/23/23 22/30/30 23/31/31 
f 23/31/31 18/24/24 17/23/23 
f 18/24/24 23/31/31 24/32/32 
f 24/32/32 19/25/25 18/24/24 
f 19/25/25 24/32/32 25/33/33 
f 25/33/33 20/26/26 19/25/25 
f 20/27/27 25/34/34 26/35/35 
f 26/35/35 21/28/28 20/27/27 
f 21/29/29 26/36/36 11/15/15 
f 22/30/30 27/37/37 28/38/38 
f 28/38/38 23/31/31 22/30/30 
f 23/31/31 28/38/38 29/39/39 
f 29/39/39 24/32/32 23/31/31 
f 24/32/32 29/39/39 30/40/40 
f 30/40/40 25/33/33 24/32/32 
f 25/34/34 30/41/41 31/42/42 
f 31/42/42 26/35/35 25/34/34 
f 26/36/36 31/43/43 11/15/15 
f 27/37/37 32/44/44 33/45/45 
f 33/45/45 28/38/38 27/37/37 
f 28/38/38 33/45/45 34/46/46 
f 34/46/46 29/39/39 28/38/38 
f 29/39/39 34/46/46 35/47/47 
f 35/47/47 30/40/40 29/39/39 
f 30/41/41 35/48/48 36/49/48 
f 36/49/48 31/42/42 30/41/41 
f 31/43/43 36/50/49 11/15/15 
f 32/44/44 37/51/50 38/52/51 
f 38/52/51 33/45/45 32/44/44 
f 33/45/45 38/52/51 39/53/52 
f 39/53/52 34/46/46 33/45/45 
f 34/46/46 39/53/52 40/54/53 
f 40/54/53 35/47/47 34/46/46 
f 35/55/54 40/56/55 41/57/56 
f 41/57/56 36/58/54 35/55/54 
f 36/50/49 41/59/57 11/15/15 
f 37/51/50 42/60/58 43/61/59 
f 43/61/59 38/52/51 37/51/50 
f 38/52/51 43/61/59 44/62/60 
f 44/62/60 39/53/52 38/52/51 
f 39/53/52 44/62/60 45/63/61 
f 45/63/61 40/54/53 39/53/52 
f 40/56/55 45/64/62 46/65/63 
f 46/65/63 41/57/56 40/56/55 
f 41/59/57 46/66/64 11/15/15 
f 42/60/58 47/67/65 48/68/66 
f 48/68/66 43/61/59 42/60/58 
f 43/61/59 48/68/66 49/69/67 
f 49/69/67 44/62/60 43/61/59 
f 44/62/60 49/69/67 50/70/68 
f 50/70/68 45/63/61 44/62/60 
f 45/64/62 50/71/69 51/72/70 
f 51/72/70 46/65/63 45/64/62 
f 46/66/64 51/73/71 11/15/15 
f 47/67/65 52/74/72 53/75/73 
f 53/75/73 48/68/66 47/67/65 
f 48/68/66 53/75/73 54/76/74 
f 54/76/74 49/69/67 48/68/66 
f 49/69/67 54/76/74 55/77/75 
f 55/77/75 50/70/68 49/69/67 
f 50/71/69 55/78/76 56/79/77 
f 56/79/77 51/72/70 50/71/69 
f 51/73/71 56/80/78 11/15/15 
f 52/74/72 57/81/79 58/82/80 
f 58/82/80 53/75/73 52/74/72 
f 53/75/73 58/82/80 59/83/81 
f 59/83/81 54/76/74 53/75/73 
f 54/76/74 59/83/81 60/84/82 
f 60/84/82 55/77/75 54/76/74 
f 55/78/76 60/85/83 61/86/84 
f 61/86/84 56/79/77 55/78/76 
f 56/80/78 61/87/85 11/15/15 
f 57/81/79 1/1/1 4/4/4 
f 4/4/4 58/82/80 57/81/79 
f 58/82/80 4/4/4 6/6/6 
f 6/6/6 59/83/81 58/82/80 
f 59/83/81 6/6/6 8/8/8 
f 8/8/8 60/84/82 59/83/81 
f 60/85/83 8/9/9 10/12/12 
f 10/12/12 61/86/84 60/85/83 
f 61/87/85 10/13/13 11/15/15 
f 57/81/86 52/74/87 47/67/88 
f 47/67/88 42/60/89 37/51/90 
f 37/51/90 32/44/91 27/37/92 
f 47/67/88 37/51/90 27/37/92 
f 27/37/92 22/30/93 17/23/94 
f 17/23/94 12/16/95 2/2/96 
f 27/37/92 17/23/94 2/2/96 
f 47/67/88 27/37/92 2/2/96 
f 57/81/86 47/67/88 2/2/96 
f 1/1/97 57/81/86 2/2/96 
f 62/88/98 63/89/98 64/90/98 
f 65/90/99 66/89/99 67/88/99 
f 68/91/100 69/92/101 70/93/101 
f 70/93/101 71/94/100 68/91/100 
f 63/95/102 66/89/102 70/93/103 
f 70/93/103 69/96/103 63/95/102 
f 62/88/104 67/97/105 66/98/106 
f 66/98/106 63/89/107 62/88/104 
f 69/93/98 68/94/98 64/90/98 
f 64/90/98 63/89/98 69/93/98 
f 71/94/99 70/93/99 66/89/99 
f 66/89/99 65/90/99 71/94/99 
f 68/99/108 71/94/108 65/90/108 
f 65/90/108 64/100/108 68/99/108 
f 64/90/109 65/101/109 67/102/110 
f 67/102/110 62/88/104 64/90/109 
f 72/103/103 73/104/103 74/105/103 
f 75/105/111 76/104/111 77/103/111 
f 78/106/112 79/107/113 80/108/113 
f 80/108/113 81/109/112 78/106/112 
f 73/110/114 76/104/114 80/108/114 
f 80/108/114 79/111/114 73/110/114 
f 72/103/115 77/112/116 76/113/117 
f 76/113/117 73/104/117 72/103/115 
f 79/108/103 78/109/103 74/105/103 
f 74/105/103 73/104/103 79/108/103 
f 81/109/111 80/108/111 76/104/111 
f 76/104/111 75/105/111 81/109/111 
f 78/114/118 81/109/118 75/105/119 
f 75/105/119 74/115/119 78/114/118 
f 74/105/120 75/116/120 77/117/121 
f 77/117/121 72/103/115 74/105/120 
f 82/1/122 83/2/123 84/3/3 
f 84/3/3 85/4/124 82/1/122 
f 85/4/124 84/3/3 86/5/5 
f 86/5/5 87/6/6 85/4/124 
f 87/6/6 86/5/5 88/7/7 
f 88/7/7 89/8/125 87/6/6 
f 89/9/9 88/10/10 90/11/11 
f 90/11/11 91/12/12 89/9/9 
f 91/13/126 90/14/14 92/15/127 
f 83/2/123 93/16/128 94/17/17 
f 94/17/17 84/3/3 83/2/123 
f 84/3/3 94/17/17 95/18/18 
f 95/18/18 86/5/5 84/3/3 
f 86/5/5 95/18/18 96/19/19 
f 96/19/19 88/7/7 86/5/5 
f 88/10/10 96/20/20 97/21/21 
f 97/21/21 90/11/11 88/10/10 
f 90/14/14 97/22/22 92/15/127 
f 93/16/128 98/23/129 99/24/24 
f 99/24/24 94/17/17 93/16/128 
f 94/17/17 99/24/24 100/25/25 
f 100/25/25 95/18/18 94/17/17 
f 95/18/18 100/25/25 101/26/26 
f 101/26/26 96/19/19 95/18/18 
f 96/20/20 101/27/27 102/28/28 
f 102/28/28 97/21/21 96/20/20 
f 97/22/22 102/29/29 92/15/127 
f 98/23/129 103/30/130 104/31/31 
f 104/31/31 99/24/24 98/23/129 
f 99/24/24 104/31/31 105/32/32 
f 105/32/32 100/25/25 99/24/24 
f 100/25/25 105/32/32 106/33/33 
f 106/33/33 101/26/26 100/25/25 
f 101/27/27 106/34/34 107/35/35 
f 107/35/35 102/28/28 101/27/27 
f 102/29/29 107/36/131 92/15/127 
f 103/30/130 108/37/132 109/38/133 
f 109/38/133 104/31/31 103/30/130 
f 104/31/31 109/38/133 110/39/39 
f 110/39/39 105/32/32 104/31/31 
f 105/32/32 110/39/39 111/40/40 
f 111/40/40 106/33/33 105/32/32 
f 106/34/34 111/41/41 112/42/42 
f 112/42/42 107/35/35 106/34/34 
f 107/36/131 112/43/43 92/15/127 
f 108/37/132 113/44/134 114/45/45 
f 114/45/45 109/38/133 108/37/132 
f 109/38/133 114/45/45 115/46/46 
f 115/46/46 110/39/39 109/38/133 
f 110/39/39 115/46/46 116/47/135 
f 116/47/135 111/40/40 110/39/39 
f 111/41/41 116/48/48 117/49/48 
f 117/49/48 112/42/42 111/41/41 
f 112/43/43 117/50/136 92/15/127 
f 113/44/134 118/51/137 119/52/51 
f 119/52/51 114/45/45 113/44/134 
f 114/45/45 119/52/51 120/53/52 
f 120/53/52 115/46/46 114/45/45 
f 115/46/46 120/53/52 121/54/53 
f 121/54/53 116/47/135 115/46/46 
f 116/55/54 121/56/55 122/57/56 
f 122/57/56 117/58/54 116/55/54 
f 117/50/136 122/59/57 92/15/127 
f 118/51/137 123/60/138 124/61/59 
f 124/61/59 119/52/51 118/51/137 
f 119/52/51 124/61/59 125/62/60 
f 125/62/60 120/53/52 119/52/51 
f 120/53/52 125/62/60 126/63/61 
f 126/63/61 121/54/53 120/53/52 
f 121/56/55 126/64/62 127/65/63 
f 127/65/63 122/57/56 121/56/55 
f 122/59/57 127/66/64 92/15/127 
f 123/60/138 128/67/139 129/68/66 
f 129/68/66 124/61/59 123/60/138 
f 124/61/59 129/68/66 130/69/67 
f 130/69/67 125/62/60 124/61/59 
f 125/62/60 130/69/67 131/70/140 
f 131/70/140 126/63/61 125/62/60 
f 126/64/62 131/71/69 132/72/70 
f 132/72/70 127/65/63 126/64/62 
f 127/66/64 132/73/71 92/15/127 
f 128/67/139 133/74/141 134/75/142 
f 134/75/142 129/68/66 128/67/139 
f 129/68/66 134/75/142 135/76/74 
f 135/76/74 130/69/67 129/68/66 
f 130/69/67 135/76/74 136/77/75 
f 136/77/75 131/70/140 130/69/67 
f 131/71/69 136/78/76 137/79/77 
f 137/79/77 132/72/70 131/71/69 
f 132/73/71 137/80/78 92/15/127 
f 133/74/141 138/81/143 139/82/80 
f 139/82/80 134/75/142 133/74/141 
f 134/75/142 139/82/80 140/83/81 
f 140/83/81 135/76/74 134/75/142 
f 135/76/74 140/83/81 141/84/82 
f 141/84/82 136/77/75 135/76/74 
f 136/78/76 141/85/83 142/86/84 
f 142/86/84 137/79/77 136/78/76 
f 137/80/78 142/87/85 92/15/127 
f 138/81/143 82/1/122 85/4/124 
f 85/4/124 139/82/80 138/81/143 
f 139/82/80 85/4/124 87/6/6 
f 87/6/6 140/83/81 139/82/80 
f 140/83/81 87/6/6 89/8/125 
f 89/8/125 141/84/82 140/83/81 
f 141/85/83 89/9/9 91/12/12 
f 91/12/12 142/86/84 141/85/83 
f 142/87/85 91/13/126 92/15/127 
f 138/81/144 133/74/144 128/67/145 
f 128/67/145 123/60/146 118/51/147 
f 118/51/147 113/44/148 108/37/92 
f 128/67/145 118/51/147 108/37/92 
f 108/37/92 103/30/93 98/23/149 
f 98/23/149 93/16/150 83/2/96 
f 108/37/92 98/23/149 83/2/96 
f 128/67/145 108/37/92 83/2/96 
f 138/81/144 128/67/145 83/2/96 
f 82/1/151 138/81/144 83/2/96 
f 143/88/98 144/89/98 145/90/98 
f 146/90/99 147/89/99 148/88/99 
f 149/91/152 150/92/101 151/93/101 
f 151/93/101 152/94/152 149/91/152 
f 144/95/153 147/89/153 151/93/153 
f 151/93/153 150/96/153 144/95/153 
f 143/88/154 148/97/155 147/98/106 
f 147/98/106 144/89/106 143/88/154 
f 150/93/98 149/94/98 145/90/98 
f 145/90/98 144/89/98 150/93/98 
f 152/94/99 151/93/99 147/89/99 
f 147/89/99 146/90/99 152/94/99 
f 149/99/111 152/94/111 146/90/111 
f 146/90/111 145/100/111 149/99/111 
f 145/90/109 146/101/109 148/102/156 
f 148/102/156 143/88/154 145/90/109 
f 153/103/103 154/104/103 155/105/103 
f 156/105/111 157/104/111 158/103/111 
f 159/106/113 160/107/113 161/108/113 
f 161/108/113 162/109/113 159/106/113 
f 154/110/114 157/104/114 161/108/114 
f 161/108/114 160/111/114 154/110/114 
f 153/103/157 158/112/158 157/113/117 
f 157/113/117 154/104/117 153/103/157 
f 160/108/103 159/109/103 155/105/103 
f 155/105/103 154/104/103 160/108/103 
f 162/109/111 161/108/111 157/104/111 
f 157/104/111 156/105/111 162/109/111 
f 159/114/159 162/109/159 156/105/118 
f 156/105/118 155/115/118 159/114/159 
f 155/105/120 156/116/120 158/117/120 
f 158/117/120 153/103/157 155/105/120 
# 300 faces

